<svg width="16" height="15" viewBox="0 0 16 15" fill="none" xmlns="http://www.w3.org/2000/svg">
    <path
        d="M14.75 14.25L10.25 9.75M1.25 6C1.25 6.68944 1.3858 7.37213 1.64963 8.00909C1.91347 8.64605 2.30018 9.2248 2.78769 9.71231C3.2752 10.1998 3.85395 10.5865 4.49091 10.8504C5.12787 11.1142 5.81056 11.25 6.5 11.25C7.18944 11.25 7.87213 11.1142 8.50909 10.8504C9.14605 10.5865 9.7248 10.1998 10.2123 9.71231C10.6998 9.2248 11.0865 8.64605 11.3504 8.00909C11.6142 7.37213 11.75 6.68944 11.75 6C11.75 5.31056 11.6142 4.62787 11.3504 3.99091C11.0865 3.35395 10.6998 2.7752 10.2123 2.28769C9.7248 1.80018 9.14605 1.41347 8.50909 1.14963C7.87213 0.885795 7.18944 0.75 6.5 0.75C5.81056 0.75 5.12787 0.885795 4.49091 1.14963C3.85395 1.41347 3.2752 1.80018 2.78769 2.28769C2.30018 2.7752 1.91347 3.35395 1.64963 3.99091C1.3858 4.62787 1.25 5.31056 1.25 6Z"
        stroke="black" stroke-width="1.5" stroke-linecap="round" stroke-linejoin="round" />
</svg>